<svg width="47" height="34" fill="none" xmlns="http://www.w3.org/2000/svg"><ellipse cx="29.5" cy="16.733" rx="17.5" ry="16.733" fill="#FBD94F"/><path fill-rule="evenodd" clip-rule="evenodd" d="M.598 14.296h3.318a8.3 8.3 0 0 0 .842 1.937L2.41 18.478a.56.56 0 0 0-.175.404.56.56 0 0 0 .175.405l2.537 2.427a.618.618 0 0 0 .846 0l2.348-2.246a9.119 9.119 0 0 0 2.026.805v3.172c0 .316.268.572.598.572h3.588c.33 0 .598-.256.598-.572v-3.172a9.12 9.12 0 0 0 2.026-.805l2.348 2.245a.636.636 0 0 0 .846 0l2.537-2.426a.56.56 0 0 0 .176-.405.56.56 0 0 0-.176-.404l-2.348-2.245a8.3 8.3 0 0 0 .842-1.937h3.318c.33 0 .598-.256.598-.572v-3.43a.585.585 0 0 0-.598-.573h-3.318a8.304 8.304 0 0 0-.842-1.937l2.348-2.245a.56.56 0 0 0 .175-.404.56.56 0 0 0-.175-.405l-2.537-2.426a.618.618 0 0 0-.846 0L16.977 4.55a9.144 9.144 0 0 0-2.026-.806V.572A.585.585 0 0 0 14.353 0h-3.588a.585.585 0 0 0-.598.572v3.172a9.143 9.143 0 0 0-2.026.806L5.793 2.304a.636.636 0 0 0-.846 0L2.409 4.73a.56.56 0 0 0-.175.405.56.56 0 0 0 .175.404l2.35 2.245a8.305 8.305 0 0 0-.843 1.937H.598a.585.585 0 0 0-.598.572v3.431c0 .316.268.572.598.572Zm.598-3.431h3.188a.593.593 0 0 0 .584-.45 7.184 7.184 0 0 1 1.048-2.41.553.553 0 0 0-.081-.712L3.678 5.135 5.37 3.517l2.256 2.158a.62.62 0 0 0 .747.077 7.904 7.904 0 0 1 2.52-1.002.579.579 0 0 0 .47-.558V1.144h2.392v3.048c0 .268.196.5.47.558a7.905 7.905 0 0 1 2.52 1.002.619.619 0 0 0 .747-.077l2.256-2.158 1.691 1.618-2.256 2.157a.553.553 0 0 0-.08.714 7.184 7.184 0 0 1 1.046 2.41c.06.262.304.45.584.45h3.189v2.287h-3.189a.593.593 0 0 0-.584.45 7.176 7.176 0 0 1-1.047 2.408.554.554 0 0 0 .081.714l2.257 2.157-1.692 1.619-2.256-2.159a.62.62 0 0 0-.747-.077 7.887 7.887 0 0 1-2.52 1.002.578.578 0 0 0-.47.559v3.047h-2.392v-3.047a.578.578 0 0 0-.47-.56 7.887 7.887 0 0 1-2.52-1.001.62.62 0 0 0-.747.077L5.37 20.501l-1.692-1.618 2.257-2.158c.2-.19.233-.487.08-.714a7.186 7.186 0 0 1-1.047-2.41.592.592 0 0 0-.584-.449H1.196v-2.287Zm11.363 5.718c2.642 0 4.784-2.048 4.784-4.575 0-2.526-2.142-4.574-4.784-4.574-2.643 0-4.785 2.048-4.785 4.574.003 2.526 2.144 4.572 4.785 4.575Zm0-8.006c1.981 0 3.588 1.537 3.588 3.431 0 1.895-1.607 3.431-3.588 3.431-1.982 0-3.588-1.536-3.588-3.43.002-1.895 1.607-3.43 3.588-3.432Zm6.579 3.432c0 3.474-2.946 6.29-6.579 6.29-3.632-.004-6.574-2.818-6.579-6.29 0-3.474 2.946-6.29 6.579-6.29 3.633 0 6.579 2.816 6.579 6.29Zm-1.197 0c0-2.843-2.41-5.147-5.382-5.147-2.971.003-5.38 2.306-5.382 5.147 0 2.842 2.41 5.146 5.382 5.146 2.973 0 5.382-2.304 5.382-5.146ZM34.09 26.305V21.73a.585.585 0 0 0-.599-.572h-1.196v-4.575a.585.585 0 0 0-.598-.571h-5.382a.585.585 0 0 0-.598.571v4.575h-2.99a.585.585 0 0 0-.598.572v4.575H2.99c-1.65.002-2.988 1.28-2.99 2.859v1.143c.002 1.579 1.34 2.858 2.99 2.86h31.1c1.65-.002 2.988-1.281 2.99-2.86v-1.143c-.002-1.579-1.34-2.857-2.99-2.86Zm-1.197 0h-4.186v-4.003h4.186v4.003Zm-5.98-9.15h4.186v4.003h-4.186v-4.003Zm-3.588 5.147h4.186v4.003h-4.186v-4.003Zm12.559 8.005c0 .948-.804 1.716-1.794 1.716H2.99c-.99 0-1.794-.768-1.794-1.716v-1.143c0-.948.803-1.716 1.794-1.716h31.1c.99 0 1.794.768 1.794 1.716v1.143Zm-19.138-.572c0-.947.804-1.715 1.794-1.715.991 0 1.795.768 1.795 1.715 0 .948-.804 1.716-1.794 1.716-.991 0-1.795-.768-1.795-1.716Zm1.197 0c0 .316.267.572.598.572.33 0 .598-.256.598-.572a.585.585 0 0 0-.599-.571.585.585 0 0 0-.598.571ZM12.56 28.02c-.991 0-1.794.768-1.794 1.715 0 .948.803 1.716 1.794 1.716.99 0 1.794-.768 1.794-1.716 0-.947-.803-1.715-1.794-1.715Zm0 2.287a.585.585 0 0 1-.598-.572c0-.315.268-.571.598-.571.33 0 .598.256.598.571a.585.585 0 0 1-.598.572Zm10.167-.572c0-.947.803-1.715 1.794-1.715.99 0 1.794.768 1.794 1.715 0 .948-.803 1.716-1.794 1.716-.99 0-1.794-.768-1.794-1.716Zm1.196 0c0 .316.268.572.598.572.33 0 .598-.256.598-.572a.585.585 0 0 0-.598-.571.585.585 0 0 0-.598.571ZM6.579 28.02c-.991 0-1.795.768-1.795 1.715 0 .948.804 1.716 1.795 1.716.99 0 1.794-.768 1.794-1.716 0-.947-.804-1.715-1.794-1.715Zm0 2.287a.585.585 0 0 1-.598-.572c0-.315.267-.571.598-.571.33 0 .598.256.598.571a.585.585 0 0 1-.598.572Zm22.127-.572c0-.947.804-1.715 1.794-1.715.991 0 1.795.768 1.795 1.715 0 .948-.804 1.716-1.795 1.716-.99 0-1.794-.768-1.794-1.716Zm1.196 0c0 .316.268.572.598.572.33 0 .599-.256.599-.572a.585.585 0 0 0-.599-.571.585.585 0 0 0-.598.571Z" fill="#000"/></svg>