<svg width="51" height="35" viewBox="0 0 51 35" fill="none" xmlns="http://www.w3.org/2000/svg">
<circle cx="33.5" cy="17.5" r="17.5" fill="#FBD94F"/>
<path d="M36.2359 17.5221C36.2359 17.5548 36.2359 17.5829 36.2359 17.6157C36.2874 18.3835 36.161 19.1373 36.0814 19.8958C36.0486 20.2235 35.9596 20.556 35.8566 20.8696C35.6225 21.586 35.3791 22.3023 35.1028 23.0046C34.939 23.4166 34.7142 23.8005 34.4989 24.1891C34.1852 24.7557 33.8247 25.2894 33.4314 25.8044C33.0662 26.282 32.6401 26.6987 32.2562 27.1575C32.1111 27.3307 31.891 27.4431 31.7225 27.607C31.1466 28.1641 30.4865 28.6089 29.8076 29.0162C29.2832 29.3299 28.7354 29.6296 28.1736 29.8683C27.5743 30.1212 26.9469 30.3178 26.3195 30.5051C25.8888 30.6315 25.444 30.7017 25.0039 30.8047C24.2969 30.9686 23.5712 30.992 22.8502 30.9967C22.4288 31.0014 22.0075 31.0061 21.5861 30.9733C21.2537 30.9499 20.9306 30.875 20.6029 30.8141C20.2611 30.7486 19.9146 30.6877 19.5776 30.6034C18.585 30.3553 17.6205 30.0182 16.7075 29.5547C16.3517 29.3721 16.2346 29.1473 16.3002 28.7775C16.347 28.5106 16.5624 28.328 16.8339 28.3139C17.0353 28.3046 17.2179 28.3467 17.3958 28.445C17.9904 28.7587 18.6131 29.0069 19.2639 29.1801C19.7882 29.3206 20.3173 29.4516 20.8464 29.5593C21.1647 29.6249 21.4925 29.6483 21.8155 29.667C22.0496 29.6811 22.0871 29.6296 22.0917 29.4002C22.0964 29.1754 22.1011 28.946 22.0917 28.7213C22.0777 28.4731 22.1245 28.2437 22.1948 28.0096C22.2603 27.7989 22.4757 27.6351 22.691 27.6116C23.0703 27.5695 23.3512 27.7474 23.4167 28.1313C23.4448 28.3046 23.4823 28.4825 23.4916 28.6604C23.5057 28.9179 23.4916 29.1754 23.4963 29.4329C23.501 29.6249 23.5478 29.6623 23.7351 29.6717C23.7585 29.6717 23.7819 29.6764 23.8053 29.6717C24.0956 29.6342 24.3906 29.6108 24.6809 29.5547C25.0601 29.4844 25.4393 29.4001 25.8139 29.2971C26.2727 29.1707 26.7269 29.035 27.1763 28.8851C27.8365 28.6604 28.4451 28.3233 29.0444 27.9815C29.3862 27.7849 29.6999 27.5367 30.0276 27.312C30.2009 27.1903 30.3694 27.0685 30.538 26.9468C30.5941 26.9047 30.6503 26.8625 30.7018 26.8157C30.9593 26.5769 30.9453 26.5535 30.6878 26.3101C30.3928 26.0291 30.1119 25.7389 29.845 25.4345C29.6343 25.1911 29.6531 24.9429 29.8731 24.6995C29.9012 24.6714 29.9246 24.6433 29.9574 24.6152C30.2477 24.3483 30.4537 24.3156 30.7908 24.6152C31.0904 24.8774 31.3573 25.1724 31.6382 25.4533C31.8442 25.6593 31.8723 25.6686 32.0596 25.4486C32.3124 25.1536 32.5512 24.8446 32.7759 24.5262C33.2113 23.9129 33.5906 23.2668 33.8855 22.5786C34.129 22.0167 34.3069 21.4268 34.5036 20.8416C34.5972 20.5606 34.6674 20.275 34.733 19.9848C34.7938 19.7038 34.8266 19.4182 34.8734 19.1373C34.8922 19.0062 34.9062 18.8751 34.9249 18.744C34.939 18.6504 34.9624 18.5614 34.9624 18.4678C34.9717 18.2524 34.9202 18.2009 34.7096 18.2009C34.4146 18.1963 34.115 18.215 33.82 18.1916C33.6187 18.1775 33.422 18.1307 33.2301 18.0698C33.1411 18.0418 33.0662 17.9528 33.0053 17.8732C32.804 17.6157 32.8883 17.0773 33.1739 16.9415C33.3658 16.8525 33.5906 16.8151 33.8059 16.801C34.0915 16.7776 34.3818 16.7964 34.6721 16.7917C34.9343 16.787 34.9905 16.7308 34.9624 16.4686C34.9343 16.1971 34.9015 15.9302 34.85 15.6633C34.7751 15.2747 34.6955 14.8861 34.5972 14.5022C34.5036 14.1417 34.4099 13.7765 34.2788 13.43C34.115 12.9853 33.9464 12.5405 33.731 12.1144C33.3331 11.3325 32.9164 10.5553 32.3265 9.89049C32.2328 9.78748 32.1673 9.65639 32.0736 9.55339C31.8676 9.32865 31.8442 9.32865 31.6335 9.53934C31.3667 9.80153 31.1045 10.0684 30.8376 10.3306C30.7814 10.3868 30.7252 10.443 30.6597 10.4804C30.3788 10.6396 30.2009 10.6115 29.948 10.368C29.6343 10.059 29.5969 9.82494 29.9293 9.46443C30.1915 9.17883 30.4724 8.90728 30.7486 8.63104C30.9453 8.4344 30.9593 8.40163 30.7486 8.22371C30.4443 7.96621 30.1259 7.72743 29.8076 7.49333C29.5735 7.32478 29.3394 7.15623 29.0866 7.02046C28.3562 6.61781 27.6258 6.21048 26.8252 5.96234C26.2821 5.79379 25.7343 5.65333 25.1771 5.52223C24.8915 5.45669 24.5919 5.44732 24.3016 5.40518C24.1237 5.38177 23.9505 5.33027 23.7726 5.32091C23.5385 5.30686 23.4963 5.35837 23.4916 5.58778C23.487 5.83124 23.5057 6.0747 23.487 6.31348C23.4682 6.5429 23.4308 6.77699 23.3793 7.00173C23.3325 7.19837 23.0937 7.35287 22.8924 7.37628C22.5131 7.41842 22.2275 7.24051 22.1667 6.85659C22.1386 6.67399 22.1011 6.4914 22.0917 6.30412C22.0777 6.05597 22.0917 5.80315 22.0871 5.55501C22.0824 5.36305 22.0402 5.33027 21.8483 5.31623C21.8015 5.31155 21.7546 5.31155 21.7078 5.31623C21.3801 5.36305 21.0477 5.41455 20.7199 5.47073C20.528 5.50351 20.3407 5.54096 20.1487 5.58778C19.1983 5.80783 18.2619 6.06534 17.4005 6.53822C17.2179 6.64122 17.0259 6.68804 16.8199 6.67399C16.5624 6.65995 16.3517 6.48203 16.3002 6.22452C16.23 5.8687 16.3377 5.61587 16.6748 5.45669C17.2132 5.1945 17.7469 4.91826 18.3322 4.75908C18.8284 4.6233 19.3107 4.43134 19.8116 4.32366C20.2658 4.23002 20.7246 4.15511 21.1835 4.08019C22.0262 3.9491 22.8643 4.01933 23.7023 4.01465C24.1097 4.00997 24.517 4.1036 24.9196 4.16915C25.2474 4.22065 25.5798 4.28152 25.8982 4.37047C26.4085 4.50625 26.9141 4.66076 27.4198 4.81994C28.1549 5.04936 28.815 5.42859 29.4939 5.78442C30.1447 6.12152 30.6971 6.5944 31.3011 6.98768C31.4462 7.08132 31.5539 7.24051 31.685 7.36224C31.9051 7.56356 32.1485 7.73679 32.3452 7.95216C32.7946 8.44377 33.2207 8.9541 33.6374 9.48316C34.1805 10.1761 34.5972 10.9439 34.9717 11.7305C35.2761 12.3672 35.4868 13.0508 35.7162 13.7203C35.8566 14.1323 35.9596 14.5584 36.058 14.9798C36.1048 15.1811 36.1095 15.3965 36.1329 15.6071C36.1844 16.1409 36.264 16.6746 36.2359 17.213C36.2312 17.316 36.2359 17.4144 36.2359 17.5174C36.2406 17.5221 36.2359 17.5221 36.2359 17.5221Z" fill="black"/>
<path d="M22.8597 14.7831C23.2109 14.7971 23.5808 14.8908 23.946 15.0172C24.269 15.1249 24.2971 15.1342 24.5265 14.8767C24.6576 14.7316 24.8074 14.6052 24.9432 14.4647C25.4863 13.9076 26.0248 13.3457 26.5772 12.7933C27.022 12.3485 27.4762 11.9084 27.9397 11.4777C28.0895 11.3372 28.2721 11.2248 28.4921 11.3138C28.759 11.4215 28.9697 11.6041 29.0072 11.899C29.0352 12.1004 28.9135 12.2689 28.7731 12.414C28.3564 12.8354 27.9397 13.2568 27.5183 13.6735C26.9705 14.2213 26.4227 14.7644 25.8749 15.3075C25.6923 15.4901 25.5144 15.6727 25.3271 15.8506C25.2195 15.9536 25.2054 16.0472 25.2756 16.183C25.3459 16.3188 25.4161 16.4639 25.4536 16.6137C25.6408 17.3254 25.6502 18.0324 25.3225 18.7113C25.1071 19.1607 24.7747 19.5119 24.3439 19.7834C23.9226 20.0456 23.459 20.1814 22.9862 20.2422C22.5273 20.2984 22.0779 20.1673 21.6518 19.9894C21.3568 19.863 21.3007 19.863 21.09 20.1112C20.9214 20.3078 20.7576 20.4998 20.5141 20.6121C20.2332 20.7385 19.8773 20.6215 19.7369 20.3452C19.573 20.0269 19.5964 19.849 19.8352 19.5821C19.9663 19.437 20.1068 19.3012 20.2472 19.1701C20.3643 19.0577 20.4017 18.95 20.3128 18.8002C19.9757 18.2243 19.971 17.5782 20.0599 16.9555C20.1583 16.2907 20.5094 15.7335 21.0806 15.3403C21.3662 15.1436 21.6612 14.9704 21.9983 14.8861C22.2651 14.8206 22.532 14.7691 22.8597 14.7831ZM24.2409 17.4986C24.2784 17.1849 24.2316 16.8853 24.0209 16.6278C23.6838 16.2158 23.2296 16.066 22.7193 16.0566C22.5601 16.0566 22.3962 16.1081 22.2417 16.1596C21.7595 16.3141 21.2913 16.8104 21.3381 17.3067C21.3522 17.4378 21.3475 17.5735 21.3381 17.7046C21.3194 17.9996 21.4411 18.2337 21.6284 18.4444C21.8438 18.6878 22.1153 18.8002 22.429 18.8892C22.8082 19.0015 23.15 18.9266 23.4684 18.7862C24.0162 18.5474 24.3158 18.1307 24.2409 17.4986Z" fill="black"/>
<path d="M8.5141 16.801C10.7427 16.801 12.976 16.7964 15.2046 16.8057C15.4434 16.8057 15.6822 16.8619 15.9116 16.9228C16.0754 16.9649 16.1878 17.0913 16.2299 17.2646C16.2955 17.5361 16.2861 17.7936 16.0614 17.9996C16.0239 18.0371 15.9724 18.0745 15.9256 18.0839C15.6962 18.126 15.4668 18.1963 15.2374 18.1963C10.7521 18.2009 6.26677 18.2009 1.78147 18.1963C1.56141 18.1963 1.332 18.1448 1.12131 18.0792C1.02299 18.0511 0.929352 17.9481 0.863805 17.8592C0.671845 17.5829 0.765484 17.0726 1.0464 16.9462C1.23836 16.8572 1.46309 16.8198 1.67846 16.8057C1.98747 16.7823 2.30116 16.801 2.61485 16.801C4.58595 16.801 6.54768 16.801 8.5141 16.801Z" fill="black"/>
<path d="M11.1453 22.4614C9.4504 22.4614 7.76022 22.4614 6.06536 22.4614C5.90149 22.4614 5.73762 22.4474 5.57844 22.424C5.0166 22.349 4.97447 21.8528 5.0962 21.4829C5.13365 21.3658 5.29752 21.2628 5.42861 21.216C5.62526 21.1505 5.83594 21.1083 6.04195 21.1083C8.83707 21.1036 11.6275 21.1036 14.4226 21.1036C15.0313 21.1036 15.6399 21.0943 16.2486 21.1083C16.4686 21.113 16.6934 21.1786 16.9087 21.2347C17.0913 21.2816 17.185 21.4314 17.2131 21.614C17.2224 21.6889 17.2271 21.7685 17.2224 21.8481C17.2084 22.1618 17.0679 22.3444 16.7589 22.4052C16.5857 22.438 16.4031 22.4567 16.2252 22.4567C14.5303 22.4661 12.8401 22.4614 11.1453 22.4614Z" fill="black"/>
<path d="M11.1641 12.5405C12.8496 12.5405 14.5351 12.5359 16.2206 12.5452C16.45 12.5452 16.6794 12.6154 16.9089 12.6576C17.0446 12.681 17.1242 12.7746 17.171 12.8964C17.246 13.0836 17.246 13.2756 17.1945 13.4722C17.157 13.6174 17.0587 13.7157 16.9135 13.7672C16.6935 13.8468 16.4688 13.8983 16.23 13.8983C13.3272 13.8936 10.4244 13.8936 7.52157 13.8936C7.05337 13.8936 6.58518 13.903 6.11699 13.8889C5.89225 13.8796 5.66752 13.8421 5.45215 13.7906C5.17592 13.7204 5.05887 13.5518 5.0495 13.2615C5.04014 12.8449 5.12442 12.7184 5.52706 12.6154C5.70029 12.5733 5.87821 12.5405 6.05612 12.5405C7.76035 12.5359 9.45989 12.5405 11.1641 12.5405Z" fill="black"/>
<path d="M13.7813 9.63286C12.6436 9.63286 11.5059 9.63754 10.3682 9.62818C10.1388 9.62818 9.90935 9.56732 9.68462 9.51113C9.60503 9.4924 9.52543 9.41281 9.47393 9.34258C9.25856 9.06635 9.29134 8.59815 9.57225 8.42024C9.7408 8.31255 9.96554 8.28915 10.1669 8.23764C10.2324 8.21892 10.3073 8.23296 10.3775 8.23296C12.653 8.23296 14.9284 8.22828 17.2085 8.23764C17.4379 8.23764 17.672 8.29383 17.8967 8.35001C18.0793 8.39215 18.3088 8.75266 18.2994 8.93993C18.29 9.19744 18.0559 9.47836 17.8218 9.54859C17.5503 9.62818 17.274 9.64223 16.9931 9.64223C15.921 9.63286 14.8535 9.63286 13.7813 9.63286Z" fill="black"/>
<path d="M13.7813 26.7689C12.6342 26.7689 11.4872 26.7736 10.3448 26.7643C10.1247 26.7643 9.89998 26.7081 9.67993 26.6519C9.51606 26.6098 9.42711 26.4599 9.38029 26.3148C9.29601 26.0479 9.33347 25.7904 9.53479 25.575C9.57225 25.5376 9.61907 25.4955 9.66588 25.4861C9.88594 25.4393 10.106 25.3737 10.3307 25.3737C12.6389 25.3644 14.9471 25.3644 17.2553 25.3737C17.4707 25.3737 17.6907 25.4252 17.8967 25.4861C18.2058 25.5797 18.3603 26.0573 18.2104 26.3382C18.0185 26.6987 17.6767 26.7502 17.3349 26.7643C16.656 26.783 15.9772 26.7689 15.2983 26.7689C14.7926 26.7689 14.287 26.7689 13.7813 26.7689Z" fill="black"/>
</svg>
