<svg width="45" height="36" viewBox="0 0 45 36" fill="none" xmlns="http://www.w3.org/2000/svg">
<circle cx="27.5" cy="17.5" r="17.5" fill="#FBD94F"/>
<path d="M1.00003 27.8766C1.15711 27.5477 1.42219 27.4495 1.78053 27.4495C3.03228 27.4642 4.28403 27.4544 5.53579 27.4544C6.01685 27.4544 5.97267 27.5133 5.97758 27.0274C6.01194 21.6031 6.04631 16.1788 6.08067 10.7546C6.08558 9.71391 6.11503 8.67814 6.11503 7.63747C6.11503 6.36608 6.63537 5.36468 7.6564 4.62836C8.17183 4.25529 8.77071 4.04911 9.40886 4.00984C9.56594 4.00003 9.71811 4.00003 9.8752 4.00003C17.2777 4.00003 24.6802 4.00493 32.0828 3.99512C33.1332 3.99512 34.0512 4.28965 34.8219 5.02106C35.4011 5.57085 35.7693 6.23845 35.9313 7.01896C35.946 7.0975 35.9706 7.17604 35.9951 7.25458C35.9951 9.1543 35.9951 11.0491 35.9951 12.9488C35.7987 13.2826 35.4993 13.3612 35.1262 13.3612C33.4327 13.3514 31.7391 13.3563 30.0456 13.3563C29.9425 13.3563 29.8345 13.3563 29.6971 13.3563C29.6971 13.4888 29.6971 13.5919 29.6971 13.695C29.6971 19.3009 29.6922 24.9067 29.702 30.5077C29.702 31.7055 29.4173 32.805 28.6711 33.7525C28.0428 34.5526 27.2328 35.1024 26.2461 35.3969C25.6129 35.5884 24.9748 35.5835 24.3268 35.5835C18.1515 35.5835 11.9713 35.5982 5.79596 35.5785C3.83242 35.5736 2.17324 34.4691 1.37801 32.6332C1.22583 32.2798 1.15711 31.8871 1.05402 31.5091C1.0393 31.4551 1.01475 31.406 0.995117 31.3569C1.00003 30.2034 1.00003 29.04 1.00003 27.8766ZM29.5891 5.12906C29.4369 5.12906 29.3289 5.12906 29.216 5.12906C24.5281 5.12906 19.8401 5.12906 15.1522 5.12906C13.385 5.12906 11.6178 5.12906 9.85065 5.12906C8.9867 5.12906 8.26019 5.41377 7.72022 6.12555C7.35206 6.61152 7.24897 7.17113 7.24406 7.76019C7.19497 14.2055 7.14588 20.6557 7.0968 27.101C7.09189 27.4544 7.0968 27.4593 7.45514 27.4593C11.7995 27.4593 16.1438 27.4593 20.4881 27.4593C21.0575 27.4593 21.2588 27.6508 21.2588 28.2202C21.2637 29.0203 21.2391 29.8254 21.2686 30.6255C21.2833 31.0526 21.3128 31.5042 21.4502 31.9067C21.9166 33.2567 22.8541 34.1255 24.2728 34.3955C25.5687 34.641 26.6879 34.2482 27.5764 33.2861C28.2637 32.5449 28.5631 31.6466 28.5582 30.6255C28.5484 25.1375 28.5533 19.6445 28.5533 14.1564C28.5533 12.0701 28.5484 9.98389 28.5533 7.89764C28.5533 7.24476 28.6564 6.61152 29.0147 6.04701C29.1964 5.75739 29.3731 5.46777 29.5891 5.12906ZM21.8037 34.4593C21.7153 34.3612 21.6809 34.3219 21.6417 34.2826C20.7041 33.3696 20.1837 32.27 20.1445 30.9593C20.1248 30.2721 20.1248 29.5849 20.1445 28.8976C20.1543 28.6375 20.0659 28.5884 19.8254 28.5884C17.9993 28.5982 16.1781 28.5933 14.3521 28.5933C10.3759 28.5933 6.39974 28.5933 2.42359 28.5884C2.20269 28.5884 2.12415 28.6424 2.12906 28.8731C2.14378 29.4965 2.13397 30.115 2.13397 30.7384C2.13888 31.7742 2.49722 32.6725 3.23354 33.4039C3.9846 34.155 4.90746 34.4741 5.95795 34.4741C11.1269 34.4691 16.2959 34.4741 21.4699 34.4741C21.5582 34.4741 21.6417 34.4642 21.8037 34.4593ZM34.8464 12.2027C34.8562 12.1192 34.8661 12.0505 34.8661 11.9769C34.8661 10.5926 34.871 9.21321 34.8661 7.82892C34.8661 7.1564 34.6697 6.54771 34.2279 6.02246C33.5112 5.16833 32.1613 4.87871 31.1795 5.39904C30.2076 5.91447 29.7069 6.71952 29.7069 7.82892C29.7069 9.21321 29.7069 10.5926 29.7069 11.9769C29.7069 12.0456 29.7167 12.1192 29.7216 12.1978C31.4348 12.2027 33.1283 12.2027 34.8464 12.2027Z" fill="black"/>
<path d="M12.5506 12.6985C12.5506 12.0113 12.5555 11.324 12.5457 10.6368C12.5408 10.3079 12.693 10.1066 12.9826 9.96918C14.2245 9.3654 15.4665 8.75179 16.7084 8.13819C16.8753 8.05474 17.0422 7.97129 17.214 7.89275C17.4447 7.78475 17.6705 7.79457 17.8963 7.90747C19.315 8.60453 20.7287 9.30158 22.1474 9.99864C22.4076 10.1263 22.5401 10.3226 22.5352 10.6172C22.5303 11.9327 22.5646 13.2532 22.5254 14.5688C22.4763 16.0856 21.7841 17.2735 20.5226 18.1277C19.6782 18.6971 18.8437 19.2763 18.0092 19.8556C17.7196 20.0568 17.4447 20.1059 17.1306 19.885C16.1439 19.1929 15.1228 18.5498 14.1656 17.8184C13.1053 17.0134 12.5997 15.8794 12.5457 14.5589C12.5261 13.9404 12.5506 13.317 12.5506 12.6985ZM21.3914 12.9832H21.3963C21.3963 12.3598 21.3914 11.7413 21.4012 11.1179C21.4012 10.9608 21.3571 10.8724 21.2049 10.7988C20.0759 10.249 18.9517 9.68938 17.8325 9.12486C17.6313 9.02669 17.4644 9.02178 17.2631 9.11996C16.1341 9.68938 15.005 10.249 13.8711 10.8037C13.7385 10.8675 13.6944 10.9411 13.6944 11.0835C13.6993 12.2469 13.6895 13.4054 13.6993 14.5688C13.7091 15.5113 14.092 16.3212 14.8185 16.8956C15.6432 17.5435 16.5415 18.0982 17.4005 18.702C17.5184 18.7855 17.5969 18.7609 17.7049 18.6873C18.505 18.1375 19.3199 17.6073 20.1004 17.0379C20.9005 16.4538 21.3472 15.6487 21.3914 14.6522C21.4111 14.0975 21.3914 13.5379 21.3914 12.9832Z" fill="black"/>
<path d="M17.7932 25.324C15.5843 25.324 13.3753 25.324 11.1663 25.324C10.9012 25.324 10.6607 25.2896 10.5085 25.0344C10.322 24.73 10.4742 24.3177 10.8227 24.2342C10.9405 24.2048 11.0632 24.1901 11.186 24.1901C15.5892 24.1901 19.9875 24.1901 24.3907 24.1901C24.646 24.1901 24.9012 24.1999 25.0583 24.4551C25.2645 24.7889 25.1123 25.1915 24.7343 25.2847C24.6165 25.3142 24.4938 25.3191 24.3711 25.3191C22.1768 25.3289 19.9875 25.324 17.7932 25.324Z" fill="black"/>
<path d="M17.7884 22.6978C15.5893 22.6978 13.3901 22.6978 11.1861 22.6978C10.9308 22.6978 10.6804 22.6978 10.5185 22.4327C10.3123 22.094 10.4743 21.6768 10.8719 21.5982C10.975 21.5786 11.083 21.5786 11.191 21.5786C15.5893 21.5786 19.9925 21.5786 24.3908 21.5786C24.489 21.5786 24.5872 21.5786 24.6854 21.5933C24.9701 21.6375 25.1664 21.8879 25.1517 22.1677C25.137 22.4377 24.9357 22.6536 24.6559 22.6831C24.5332 22.6978 24.4105 22.6978 24.2877 22.6978C22.1229 22.6978 19.9581 22.6978 17.7884 22.6978Z" fill="black"/>
<path d="M19.84 12.8457C19.7517 12.9832 19.6829 13.1452 19.5651 13.2679C18.8828 13.9649 18.1956 14.6571 17.5034 15.3443C17.1451 15.7027 16.826 15.6978 16.4676 15.3345C16.1142 14.9762 15.7559 14.6178 15.4172 14.2398C15.1472 13.9355 15.2993 13.6459 15.4712 13.479C15.6724 13.2826 16.016 13.2924 16.2517 13.5084C16.4431 13.6802 16.6345 13.8668 16.8014 14.0631C16.9389 14.2251 17.0371 14.2006 17.1745 14.0631C17.6949 13.5281 18.225 13.0028 18.7601 12.4776C19.1037 12.1389 19.4719 12.1536 19.7124 12.5119C19.7713 12.5905 19.7909 12.7034 19.84 12.8457Z" fill="black"/>
</svg>
