<svg width="44" height="35" viewBox="0 0 44 35" fill="none" xmlns="http://www.w3.org/2000/svg">
<circle cx="26.5" cy="17.5" r="17.5" fill="#FBD94F"/>
<path d="M23.205 20.4541L23.1829 20.1507C22.8278 15.5279 20.6753 12.6299 18.7764 10.0738C17.0181 7.70687 15.4994 5.66288 15.4994 2.64697C15.4994 2.40479 15.3638 2.18344 15.1488 2.0724C14.933 1.96076 14.6738 1.97904 14.4777 2.12163C11.6258 4.16246 9.24632 7.60219 8.4151 10.8842C7.83805 13.1691 7.7617 15.7379 7.75099 17.4344C5.11729 16.8718 4.52069 12.932 4.51439 12.8891C4.48472 12.6848 4.35988 12.5069 4.17825 12.4098C3.99474 12.314 3.77901 12.307 3.59296 12.3991C3.45486 12.4659 0.203066 14.1183 0.0138645 20.7164C0.000605221 20.9359 0 21.1553 0 21.3754C0 27.785 5.21501 33 11.6246 33C18.0341 33 23.2491 27.785 23.2491 21.3754C23.2491 21.0538 23.2271 20.7536 23.205 20.4541ZM11.6246 31.7084C9.48783 31.7084 7.74971 29.8568 7.74971 27.5806C7.74971 27.5031 7.74911 27.4249 7.75474 27.329C7.78059 26.3691 7.96289 25.7139 8.16281 25.2781C8.53746 26.0828 9.20781 26.8226 10.2951 26.8226C10.6521 26.8226 10.941 26.5337 10.941 26.1767C10.941 25.2572 10.9599 24.1964 11.1888 23.2391C11.3926 22.3896 11.8794 21.487 12.4962 20.763C12.7706 21.7027 13.3054 22.4633 13.8276 23.2056C14.575 24.2677 15.3475 25.3657 15.4831 27.2381C15.4913 27.3491 15.4995 27.4608 15.4995 27.5806C15.4994 29.8568 13.7613 31.7084 11.6246 31.7084ZM15.706 30.8646C16.3764 29.9504 16.7911 28.8204 16.7911 27.5806C16.7911 27.4287 16.7816 27.2874 16.7627 27.0232C16.6095 24.9148 15.693 23.6118 14.8839 22.4621C14.1946 21.4833 13.5999 20.6376 13.5999 19.4381C13.5999 19.1927 13.4611 18.9688 13.2417 18.8597C13.0235 18.75 12.7598 18.7746 12.5649 18.9228C11.3263 19.8587 10.2933 21.4342 9.93253 22.9383C9.74835 23.7097 9.68405 24.544 9.66135 25.2302C9.21356 24.7484 9.07479 23.8553 9.07358 23.8433C9.04458 23.6359 8.9172 23.4548 8.73114 23.3584C8.54636 23.2625 8.32501 23.26 8.13896 23.3558C7.97621 23.4391 6.54651 24.259 6.46453 27.2748C6.45884 27.377 6.45824 27.4792 6.45824 27.5807C6.45824 28.8205 6.87297 29.9505 7.54332 30.8646C3.87044 29.2787 1.29178 25.6237 1.29178 21.3755C1.29178 21.1819 1.29117 20.989 1.30437 20.7739C1.41535 16.9028 2.65403 14.983 3.46255 14.136C4.02634 16.1542 5.50339 18.7923 8.39566 18.7923C8.75264 18.7923 9.04149 18.5034 9.04149 18.1465C9.04149 15.9851 9.09005 13.4877 9.66777 11.2008C10.3236 8.61001 12.1204 5.81237 14.2893 3.91847C14.6494 6.68463 16.1561 8.71288 17.7398 10.8439C19.6223 13.3779 21.5686 15.9983 21.8946 20.2415L21.9167 20.5506C21.9369 20.8193 21.9577 21.0873 21.9577 21.3755C21.9575 25.6237 19.3789 29.2786 15.706 30.8646Z" fill="black"/>
</svg>
