<svg width="44" height="39" viewBox="0 0 44 39" fill="none" xmlns="http://www.w3.org/2000/svg">
<circle cx="26.5" cy="17.5" r="17.5" fill="#FBD94F"/>
<path fill-rule="evenodd" clip-rule="evenodd" d="M28.0245 13.5881C27.8741 13.4001 27.6109 13.3248 27.3477 13.4377L26.37 13.8137L23.3616 7.15777C23.2488 6.93215 23.0608 6.81934 22.8352 6.81934H13.0581C12.8701 6.81934 12.7197 6.89454 12.6069 7.04496L7.07906 13.6633C6.96625 13.7761 6.92865 13.9641 6.96625 14.1145C7.00385 14.2649 7.07906 14.4154 7.19187 14.5282L12.7197 18.627C12.9829 18.815 13.3589 18.7774 13.547 18.5142L17.157 13.6257L18.8867 16.7092L17.7962 17.2733C17.5706 17.3861 17.4578 17.6117 17.4954 17.8373C17.533 18.063 17.6834 18.2886 17.9466 18.3262L24.1137 19.8303H24.2641C24.4522 19.8303 24.6402 19.7175 24.753 19.5671L28.0621 14.2649C28.2126 14.0393 28.175 13.7761 28.0245 13.5881ZM12.9453 17.3109L8.39521 13.9265L13.3589 7.98506H14.1486L16.5929 12.5352L12.9453 17.3109ZM23.9257 18.627L19.7516 17.6117L19.9773 17.4989C20.1277 17.4237 20.2405 17.3109 20.2781 17.1605C20.3157 17.01 20.3157 16.8596 20.2405 16.7092L17.7586 12.2719L15.4272 7.94746H22.4215L25.5051 14.7914C25.6179 15.017 25.8811 15.1674 26.1067 15.1298L23.9257 18.627ZM15.0134 28.7802L8.92157 28.517L10.5009 25.3583L11.5539 25.9599C11.7795 26.0728 12.0427 26.0728 12.2307 25.8847C12.4187 25.7343 12.494 25.4711 12.3811 25.2455L10.1625 19.304C10.0873 19.0784 9.86167 18.928 9.59844 18.928L3.31856 19.1536C3.05533 19.1536 2.86731 19.3416 2.7921 19.5672C2.7169 19.7929 2.82971 20.0561 3.01773 20.2065L3.88262 20.8082L0.0846092 27.0505C-0.0282031 27.2385 -0.0282031 27.5017 0.0846092 27.6897L4.29627 33.8944L5.91324 36.3387C6.02605 36.4891 6.21407 36.6019 6.4021 36.6019H14.9758C15.3143 36.6019 15.5775 36.3387 15.5775 36.0002V29.3819C15.5775 29.0811 15.3143 28.8179 15.0134 28.7802ZM5.19876 33.1423L1.28794 27.3513L5.23637 20.9586C5.38679 20.733 5.34918 20.4697 5.16116 20.2817L9.26001 20.0937L10.7642 24.1549L10.5385 24.0421C10.3881 23.9669 10.2377 23.9293 10.0873 24.0045C9.93688 24.0421 9.82407 24.1549 9.74886 24.3054L7.49261 28.8179L5.19876 33.1423ZM6.70293 35.4362L5.95085 34.2704L8.35751 29.6827L14.3742 29.946V35.4362H6.70293ZM31.1832 19.0782L34.9436 26.8246C35.0188 26.9751 35.0188 27.1631 34.9436 27.3135L30.9199 36.2257C30.8447 36.4137 30.6191 36.5641 30.3935 36.5641H23.0983L23.0607 37.617C23.0607 37.8427 22.8727 38.0683 22.647 38.1435C22.6094 38.1811 22.5342 38.1811 22.4966 38.1811C22.3086 38.1811 22.1206 38.0683 22.0078 37.9179L18.5106 32.7285C18.3978 32.5405 18.3978 32.2396 18.5482 32.0516L22.459 27.0503C22.6094 26.8623 22.8727 26.787 23.0983 26.8623C23.3239 26.9375 23.5119 27.1255 23.5119 27.3887L23.5495 28.592L27.0843 28.2912L24.1512 22.989C24.0008 22.7258 24.1136 22.3498 24.3768 22.1993L30.3935 18.8526C30.5439 18.7398 30.6943 18.7398 30.8447 18.7774C30.9951 18.815 31.108 18.9278 31.1832 19.0782ZM22.6094 35.436H30.0926L32.9882 29.0433L28.0996 29.3817L23.0607 29.833C22.8727 29.833 22.7222 29.7954 22.6094 29.6826C22.4966 29.5697 22.4214 29.4193 22.4214 29.2689V29.0057L19.7515 32.4277L22.0454 35.8496C22.1206 35.624 22.3462 35.436 22.6094 35.436ZM28.3252 28.1784L33.477 27.8024L33.8154 27.0879L30.3935 20.1311L25.4297 22.9138L28.3252 28.1784Z" fill="#1F2525"/>
</svg>
