<svg width="44" height="39" viewBox="0 0 44 39" fill="none" xmlns="http://www.w3.org/2000/svg">
<circle cx="26.5" cy="17.5" r="17.5" fill="#FBD94F"/>
<path fill-rule="evenodd" clip-rule="evenodd" d="M28.0245 13.5878C27.8741 13.3998 27.6109 13.3246 27.3477 13.4374L26.37 13.8135L23.3616 7.15753C23.2488 6.9319 23.0608 6.81909 22.8352 6.81909H13.0581C12.8701 6.81909 12.7197 6.8943 12.6069 7.04472L7.07906 13.663C6.96625 13.7758 6.92865 13.9639 6.96625 14.1143C7.00385 14.2647 7.07906 14.4151 7.19187 14.5279L12.7197 18.6268C12.9829 18.8148 13.3589 18.7772 13.547 18.514L17.157 13.6254L18.8867 16.709L17.7962 17.273C17.5706 17.3858 17.4578 17.6115 17.4954 17.8371C17.533 18.0627 17.6834 18.2883 17.9466 18.3259L24.1137 19.8301H24.2641C24.4522 19.8301 24.6402 19.7173 24.753 19.5669L28.0621 14.2647C28.2126 14.0391 28.175 13.7758 28.0245 13.5878ZM12.9453 17.3106L8.39521 13.9263L13.3589 7.98482H14.1486L16.5929 12.5349L12.9453 17.3106ZM23.9257 18.6268L19.7516 17.6115L19.9773 17.4987C20.1277 17.4234 20.2405 17.3106 20.2781 17.1602C20.3157 17.0098 20.3157 16.8594 20.2405 16.709L17.7586 12.2717L15.4272 7.94721H22.4215L25.5051 14.7912C25.6179 15.0168 25.8811 15.1672 26.1067 15.1296L23.9257 18.6268ZM15.0134 28.78L8.92157 28.5168L10.5009 25.358L11.5539 25.9597C11.7795 26.0725 12.0427 26.0725 12.2307 25.8845C12.4187 25.7341 12.494 25.4708 12.3811 25.2452L10.1625 19.3038C10.0873 19.0782 9.86167 18.9277 9.59844 18.9277L3.31856 19.1534C3.05533 19.1534 2.86731 19.3414 2.7921 19.567C2.7169 19.7926 2.82971 20.0559 3.01773 20.2063L3.88262 20.8079L0.0846092 27.0502C-0.0282031 27.2382 -0.0282031 27.5015 0.0846092 27.6895L4.29627 33.8942L5.91324 36.3384C6.02605 36.4888 6.21407 36.6017 6.4021 36.6017H14.9758C15.3143 36.6017 15.5775 36.3384 15.5775 36V29.3817C15.5775 29.0808 15.3143 28.8176 15.0134 28.78ZM5.19876 33.1421L1.28794 27.351L5.23637 20.9584C5.38679 20.7327 5.34918 20.4695 5.16116 20.2815L9.26001 20.0935L10.7642 24.1547L10.5385 24.0419C10.3881 23.9667 10.2377 23.9291 10.0873 24.0043C9.93688 24.0419 9.82407 24.1547 9.74886 24.3051L7.49261 28.8176L5.19876 33.1421ZM6.70293 35.4359L5.95085 34.2702L8.35751 29.6825L14.3742 29.9457V35.4359H6.70293ZM31.1832 19.078L34.9436 26.8244C35.0188 26.9748 35.0188 27.1628 34.9436 27.3133L30.9199 36.2254C30.8447 36.4134 30.6191 36.5639 30.3935 36.5639H23.0983L23.0607 37.6168C23.0607 37.8424 22.8727 38.068 22.647 38.1432C22.6094 38.1808 22.5342 38.1808 22.4966 38.1808C22.3086 38.1808 22.1206 38.068 22.0078 37.9176L18.5106 32.7282C18.3978 32.5402 18.3978 32.2394 18.5482 32.0514L22.459 27.05C22.6094 26.862 22.8727 26.7868 23.0983 26.862C23.3239 26.9372 23.5119 27.1252 23.5119 27.3885L23.5495 28.5918L27.0843 28.291L24.1512 22.9888C24.0008 22.7256 24.1136 22.3495 24.3768 22.1991L30.3935 18.8523C30.5439 18.7395 30.6943 18.7395 30.8447 18.7771C30.9951 18.8147 31.108 18.9275 31.1832 19.078ZM22.6094 35.4357H30.0926L32.9882 29.043L28.0996 29.3815L23.0607 29.8327C22.8727 29.8327 22.7222 29.7951 22.6094 29.6823C22.4966 29.5695 22.4214 29.4191 22.4214 29.2687V29.0054L19.7515 32.4274L22.0454 35.8494C22.1206 35.6238 22.3462 35.4357 22.6094 35.4357ZM28.3252 28.1782L33.477 27.8021L33.8154 27.0876L30.3935 20.1309L25.4297 22.9136L28.3252 28.1782Z" fill="#1F2525"/>
</svg>
